<?xml version="1.0" encoding="iso-8859-1"?>
<!-- Generator: Adobe Illustrator 19.0.0, SVG Export Plug-In . SVG Version: 6.00 Build 0)  -->
<svg xmlns="http://www.w3.org/2000/svg" xmlns:xlink="http://www.w3.org/1999/xlink" version="1.1" id="Layer_1" x="0px" y="0px" viewBox="0 0 444.791 444.791" style="enable-background:new 0 0 444.791 444.791;" xml:space="preserve" width="512" height="512">
<g>
	<g>
		<path style="fill:#65513C;" d="M254.917,351.415v-99.949H191.59v102.168c0,8.568,7.011,15.578,15.579,15.578h65.543    C272.712,359.386,264.743,351.415,254.917,351.415z"/>
		<path style="opacity:0.3;fill:#222222;" d="M254.917,351.415v-99.949H191.59v102.168c0,8.568,7.011,15.578,15.579,15.578h65.543    C272.712,359.386,264.743,351.415,254.917,351.415z"/>
		<rect x="191.59" y="251.466" style="opacity:0.3;fill:#222222;" width="63.327" height="62.387"/>
	</g>
	<g>
		<path style="fill:#65513C;" d="M99.01,351.415v-99.949H35.684v102.168c0,8.568,7.011,15.578,15.58,15.578h65.541    C116.805,359.386,108.838,351.415,99.01,351.415z"/>
		<path style="opacity:0.3;fill:#222222;" d="M99.01,351.415v-99.949H35.684v102.168c0,8.568,7.011,15.578,15.58,15.578h65.541    C116.805,359.386,108.838,351.415,99.01,351.415z"/>
		<rect x="35.684" y="251.466" style="opacity:0.3;fill:#222222;" width="63.326" height="62.387"/>
	</g>
	<g>
		<path style="fill:#65513C;" d="M52.82,147.839c0-14.582-11.824-26.408-26.411-26.408C11.823,121.431,0,133.257,0,147.839    c0,14.59,11.823,26.41,26.409,26.41C40.996,174.249,52.82,162.429,52.82,147.839z"/>
		<path style="opacity:0.3;fill:#222222;" d="M48.367,133.169c-14.544,9.488-26.743,22.273-35.544,37.289    c3.974,2.393,8.611,3.791,13.586,3.791c14.587,0,26.411-11.82,26.411-26.41C52.82,142.409,51.176,137.366,48.367,133.169z"/>
	</g>
	<path style="fill:#65513C;" d="M408.436,147.839c-11.389,0-22.65-15.227-32.919-27.94c-2.575-3.613-5.488-6.967-8.694-10.018   c-0.093-0.094-0.186-0.195-0.279-0.287l-0.006,0.014c-12.406-11.68-29.105-18.846-47.488-18.846   c-20.026,0-38.06,8.504-50.715,22.082l-0.006-0.016c-12.188,12.943-27.11,14.807-31.438,14.807H104.243v0.252   c-2.085-0.148-4.184-0.252-6.307-0.252c-47.719,0-86.404,38.684-86.404,86.404v139.594c0,8.568,7.011,15.578,15.58,15.578h65.543   c0-9.826-7.967-17.797-17.796-17.797v-50.973h140.1v53.191c0,8.568,7.011,15.578,15.579,15.578h65.543   c0-9.826-7.967-17.797-17.795-17.797v-56.949c0-25.748,26.117-61.627,54.464-65.766c33.459-3.189,78.281-16.754,94.353-31.932   c0.233-0.209,0.462-0.424,0.69-0.641l0.004-0.004c5.336-5.102,8.668-12.289,8.668-20.256   C436.466,160.39,423.915,147.839,408.436,147.839z"/>
	<path style="opacity:0.1;fill:#222222;" d="M177.342,300.443V127.636h-73.099v0.252c-2.085-0.148-4.184-0.252-6.307-0.252   c-47.719,0-86.404,38.684-86.404,86.404v139.594c0,8.568,7.011,15.578,15.58,15.578h65.543c0-9.826-7.967-17.797-17.796-17.797   v-50.973H177.342z"/>
	<g>
		<path style="fill:#65513C;" d="M320.478,95.091c1.625-0.668,2.398-2.527,1.728-4.148c-0.037-0.094-0.08-0.184-0.123-0.273    l0.01-0.004c-7.147-12.85-22.943-18.6-36.878-12.865c-13.933,5.736-21.105,20.941-17.138,35.102l0.015-0.004    c0.03,0.09,0.064,0.186,0.101,0.277c0.67,1.621,2.525,2.4,4.152,1.732L320.478,95.091z"/>
		<path style="fill:#FF8189;" d="M291.909,94.644c-6.194,2.549-9.465,9.18-8.008,15.506l24.605-10.131    C305.094,94.503,298.103,92.095,291.909,94.644z"/>
		<path style="opacity:0.3;fill:#222222;" d="M285.215,77.8c-13.933,5.736-21.105,20.941-17.138,35.102l0.015-0.004    c0.03,0.09,0.064,0.186,0.101,0.277c0.67,1.621,2.525,2.4,4.152,1.732l24.065-9.908L285.215,77.8z"/>
	</g>
	<circle style="fill:#333E48;" cx="365.581" cy="136.642" r="6.803"/>
	<g style="opacity:0.1;">
		
			<line style="fill:none;stroke:#222222;stroke-width:3;stroke-miterlimit:10;" x1="201.576" y1="176.749" x2="201.576" y2="188.523"/>
		
			<line style="fill:none;stroke:#222222;stroke-width:3;stroke-miterlimit:10;" x1="163.291" y1="140.995" x2="163.291" y2="152.765"/>
		
			<line style="fill:none;stroke:#222222;stroke-width:3;stroke-miterlimit:10;" x1="244.507" y1="146.878" x2="244.507" y2="158.652"/>
		
			<line style="fill:none;stroke:#222222;stroke-width:3;stroke-miterlimit:10;" x1="312.021" y1="191.292" x2="312.021" y2="203.064"/>
		
			<line style="fill:none;stroke:#222222;stroke-width:3;stroke-miterlimit:10;" x1="209.886" y1="270.89" x2="209.886" y2="282.659"/>
		<line style="fill:none;stroke:#222222;stroke-width:3;stroke-miterlimit:10;" x1="33.845" y1="288.198" x2="33.845" y2="299.97"/>
		
			<line style="fill:none;stroke:#222222;stroke-width:3;stroke-miterlimit:10;" x1="62.207" y1="245.583" x2="62.207" y2="257.353"/>
		
			<line style="fill:none;stroke:#222222;stroke-width:3;stroke-miterlimit:10;" x1="263.897" y1="210.683" x2="263.897" y2="221.068"/>
		
			<line style="fill:none;stroke:#222222;stroke-width:3;stroke-miterlimit:10;" x1="85.247" y1="182.636" x2="85.247" y2="191.292"/>
		
			<line style="fill:none;stroke:#222222;stroke-width:3;stroke-miterlimit:10;" x1="124.717" y1="161.898" x2="124.717" y2="170.556"/>
		
			<line style="fill:none;stroke:#222222;stroke-width:3;stroke-miterlimit:10;" x1="44.739" y1="166.226" x2="44.739" y2="174.882"/>
		
			<line style="fill:none;stroke:#222222;stroke-width:3;stroke-miterlimit:10;" x1="127.486" y1="234.222" x2="127.486" y2="241.841"/>
	</g>
	<path style="fill:#333E48;" d="M444.791,157.513c0-7.352-6.442-9.289-14.38-9.289c-7.942,0-14.377,1.938-14.377,9.289   c0,7.355,10.037,11.768,14.377,11.768C434.751,169.281,444.791,164.868,444.791,157.513z"/>
</g>















</svg>
