<?xml version="1.0" encoding="iso-8859-1"?>
<!-- Generator: Adobe Illustrator 19.0.0, SVG Export Plug-In . SVG Version: 6.00 Build 0)  -->
<svg version="1.1" id="Layer_1" xmlns="http://www.w3.org/2000/svg" xmlns:xlink="http://www.w3.org/1999/xlink" x="0px" y="0px"
	 viewBox="0 0 512 512" style="enable-background:new 0 0 512 512;" xml:space="preserve">
<path style="fill:#995C0D;" d="M371.638,450.505v28.634c0,18.157-14.704,32.861-32.848,32.861H173.223
	c-18.144,0-32.861-14.704-32.861-32.861v-28.634C174.409,470.093,337.591,470.093,371.638,450.505z"/>
<path style="fill:#B27214;" d="M488.274,249.024c0,86.172-46.933,161.391-116.636,201.481
	c-34.046,19.588-73.531,30.786-115.631,30.786c-42.113,0-81.598-11.198-115.644-30.786
	C70.659,410.415,23.726,335.196,23.726,249.024c0-26.804,4.549-49.265,12.899-68.015c2.32-5.206,4.936-10.129,7.822-14.781
	c22.925,26.057,400.708,26.508,423.839,1.237l0.013,0.013c2.899,4.794,5.515,9.871,7.809,15.258
	C483.996,201.124,488.274,223.032,488.274,249.024z"/>
<g>
	<path style="fill:#995C0D;" d="M198.97,447.606c-34.368-43.866-57.513-126.159-57.513-220.438c0-2.866,0.028-5.67,0.071-8.445
		c9.702,9.285,21.009,16.169,33.073,20.519c20.503,7.423,43.196,7.564,63.917-0.129v-25.129
		c-36.636-32.809-54.339-59.72-83.888-43.978c-0.61,0.325-5.581-1.117-9.858,1.224c1.698-12.847,4.021-24.358,6.903-34.656
		c3.08-2.771,6.121-5.425,9.137-7.964c-25.945,6.131-53.347,14.219-82.131,24.539c-11.374,1.482-21.675,3.804-34.234,13.077
		c-0.772,1.245-1.522,2.512-2.254,3.795c-0.28,0.488-0.546,0.99-0.82,1.485c-0.454,0.82-0.905,1.642-1.341,2.477
		c-0.286,0.548-0.563,1.104-0.843,1.66c-0.412,0.817-0.82,1.639-1.215,2.472c-0.264,0.555-0.523,1.115-0.781,1.677
		c-0.187,0.407-0.384,0.805-0.567,1.216c0.005,0.008,0.01,0.015,0.015,0.023c-8.35,18.754-12.915,41.185-12.915,67.991
		c0,86.172,46.933,161.391,116.636,201.481c34.046,19.588,73.531,30.786,115.644,30.786
		C235.233,481.291,215.762,469.036,198.97,447.606z"/>
	<path style="fill:#995C0D;" d="M325.787,217.89v25.129c-12.513,2.513-25.477,2.448-38.041-0.284v-25.129
		C297.243,192.345,315.285,202.654,325.787,217.89z"/>
	<path style="fill:#995C0D;" d="M476.109,182.735c-2.384,3.505-5,6.791-7.822,9.858c-23.131,25.271-59.626,35.283-92.977,23.286
		c-0.103,0.09-0.193,0.193-0.296,0.284v-25.129c0.103-0.09,0.193-0.193,0.296-0.284c16.155,5.812,31.609-11.839,47.362-15.589
		c16.769-3.991,33.687,5.332,45.615-7.697l0.013,0.013C471.199,172.271,473.815,177.349,476.109,182.735z"/>
</g>
<g>
	<path style="fill:#F7B239;" d="M287.746,217.606v75.567c0,6.791-2.745,12.951-7.204,17.41c-4.459,4.446-10.606,7.204-17.41,7.204
		c-4.124,0-8.003-1.018-11.418-2.809c-7.848-4.111-13.196-12.332-13.196-21.804v-79.188c4.497-1.662,8.917-3.711,13.196-6.147
		c1.572-0.876,3.131-1.817,4.665-2.809c0.193-0.116,0.387-0.245,0.567-0.361c0.193,0.116,0.387,0.245,0.567,0.361
		C266.973,211.15,277.218,215.313,287.746,217.606z"/>
	<path style="fill:#F7B239;" d="M375.014,191.034v146.443c0,6.804-2.758,12.964-7.204,17.41c-4.459,4.446-10.606,7.204-17.41,7.204
		c-13.582,0-24.613-11.005-24.613-24.613V217.89c17.126-3.428,33.415-11.662,46.701-24.407
		C373.339,192.658,374.189,191.859,375.014,191.034z"/>
</g>
<g>
	<path style="fill:#E09B2D;" d="M375.014,191.034v15.464c-0.825,0.825-1.675,1.624-2.526,2.448
		c-13.286,12.745-29.575,20.979-46.701,24.407V217.89c17.126-3.428,33.415-11.662,46.701-24.407
		C373.339,192.658,374.189,191.859,375.014,191.034z"/>
	<path style="fill:#E09B2D;" d="M338.983,190.493v168.788c-7.848-4.111-13.196-12.332-13.196-21.804V196.64
		C330.285,194.978,334.705,192.929,338.983,190.493z"/>
	<path style="fill:#E09B2D;" d="M257.514,205.029c9.459,6.121,19.704,10.283,30.232,12.577v15.464
		c-10.528-2.294-20.773-6.456-30.232-12.577c-0.18-0.116-0.374-0.245-0.567-0.361c-0.18,0.116-0.374,0.245-0.567,0.361
		c-5.709,3.686-11.701,6.675-17.861,8.956v-15.464c6.16-2.281,12.152-5.271,17.861-8.956c0.193-0.116,0.387-0.245,0.567-0.361
		C257.14,204.784,257.334,204.913,257.514,205.029z"/>
	<path style="fill:#E09B2D;" d="M251.715,207.838v107.139c-7.848-4.111-13.196-12.332-13.196-21.804v-79.188
		C243.017,212.323,247.437,210.274,251.715,207.838z"/>
</g>
<path style="fill:#F95428;" d="M479.717,151.872c-0.039,0.064-0.077,0.129-0.116,0.193c-3.247,5.619-7.049,10.76-11.314,15.399
	c-23.131,25.271-59.626,35.283-92.977,23.286c-0.103,0.09-0.193,0.193-0.296,0.284c-0.825,0.825-1.675,1.624-2.526,2.448
	c-13.286,12.745-29.575,20.979-46.701,24.407c-12.513,2.513-25.477,2.448-38.041-0.284c-10.528-2.294-20.773-6.456-30.232-12.577
	c-0.18-0.116-0.374-0.245-0.567-0.361c-0.18,0.116-0.374,0.245-0.567,0.361c-5.709,3.686-11.701,6.675-17.861,8.956
	c-20.722,7.693-43.415,7.552-63.917,0.129c-12.113-4.369-23.466-11.289-33.196-20.631c-0.941-0.915-1.881-1.817-2.809-2.732
	c-0.219,0.064-0.425,0.142-0.644,0.219c-33.737,11.856-70.58,1.314-93.505-24.742c-3.763-4.278-7.152-8.969-10.09-14.059
	c-0.155-0.258-0.296-0.515-0.451-0.773c-5.348-9.227-0.219-20.992,10.167-23.428l74.136-17.345h277.486l73.685,17.242
	C480.027,130.351,485.194,142.413,479.717,151.872z"/>
<path style="fill:#E54728;" d="M395.697,68.548H118.21v42.075l-74.136,17.345c-10.387,2.436-15.515,14.201-10.167,23.428
	c0.155,0.258,0.296,0.515,0.451,0.773c2.938,5.09,6.327,9.781,10.09,14.059c22.925,26.057,59.768,36.598,93.505,24.742
	c0.219-0.077,0.425-0.155,0.644-0.219c0.928,0.915,1.869,1.817,2.809,2.732c9.729,9.343,21.082,16.263,33.196,20.631l38.428-103.492
	h33.685v36.515c0,5.338,4.327,9.665,9.665,9.665c5.338,0,9.665-4.327,9.665-9.665v-36.515h63.709l21.263,34.838
	c1.822,2.985,5.001,4.631,8.259,4.631c1.716,0,3.454-0.456,5.026-1.416c4.557-2.781,5.995-8.728,3.215-13.285l-15.116-24.767h43.298
	V68.548H395.697z"/>
<path style="fill:#F7B239;" d="M418.287,26.082v48.479h-22.59H118.21H95.607V26.082C95.607,11.675,107.283,0,121.677,0h270.541
	C406.625,0,418.287,11.675,418.287,26.082z"/>
<g>
	<path style="fill:#E09B2D;" d="M190.785,0h-69.108c-14.394,0-26.07,11.675-26.07,26.082v48.479h22.603h46.505V26.082
		C164.715,11.675,176.391,0,190.785,0z"/>
	<path style="fill:#E09B2D;" d="M193.245,63.741L193.245,63.741c-2.847,0-5.155-2.308-5.155-5.155v-43.17
		c0-2.847,2.308-5.155,5.155-5.155l0,0c2.847,0,5.155,2.308,5.155,5.155v43.17C198.4,61.433,196.092,63.741,193.245,63.741z"/>
	<path style="fill:#E09B2D;" d="M249.323,63.741L249.323,63.741c-2.847,0-5.155-2.308-5.155-5.155v-43.17
		c0-2.847,2.308-5.155,5.155-5.155l0,0c2.847,0,5.155,2.308,5.155,5.155v43.17C254.478,61.433,252.17,63.741,249.323,63.741z"/>
	<path style="fill:#E09B2D;" d="M277.363,63.741L277.363,63.741c-2.847,0-5.155-2.308-5.155-5.155v-43.17
		c0-2.847,2.308-5.155,5.155-5.155l0,0c2.847,0,5.155,2.308,5.155,5.155v43.17C282.518,61.433,280.21,63.741,277.363,63.741z"/>
	<path style="fill:#E09B2D;" d="M221.285,63.741L221.285,63.741c-2.847,0-5.155-2.308-5.155-5.155v-43.17
		c0-2.847,2.308-5.155,5.155-5.155l0,0c2.847,0,5.155,2.308,5.155,5.155v43.17C226.44,61.433,224.132,63.741,221.285,63.741z"/>
	<path style="fill:#E09B2D;" d="M305.402,63.741L305.402,63.741c-2.847,0-5.155-2.308-5.155-5.155v-43.17
		c0-2.847,2.308-5.155,5.155-5.155l0,0c2.847,0,5.155,2.308,5.155,5.155v43.17C310.557,61.433,308.249,63.741,305.402,63.741z"/>
	<path style="fill:#E09B2D;" d="M333.441,63.741L333.441,63.741c-2.847,0-5.155-2.308-5.155-5.155v-43.17
		c0-2.847,2.308-5.155,5.155-5.155l0,0c2.847,0,5.155,2.308,5.155,5.155v43.17C338.595,61.433,336.288,63.741,333.441,63.741z"/>
	<path style="fill:#E09B2D;" d="M361.48,63.741L361.48,63.741c-2.847,0-5.155-2.308-5.155-5.155v-43.17
		c0-2.847,2.308-5.155,5.155-5.155l0,0c2.847,0,5.155,2.308,5.155,5.155v43.17C366.635,61.433,364.327,63.741,361.48,63.741z"/>
	<path style="fill:#E09B2D;" d="M389.519,63.741L389.519,63.741c-2.847,0-5.155-2.308-5.155-5.155v-43.17
		c0-2.847,2.308-5.155,5.155-5.155l0,0c2.847,0,5.155,2.308,5.155,5.155v43.17C394.674,61.433,392.367,63.741,389.519,63.741z"/>
</g>
<g>
</g>
<g>
</g>
<g>
</g>
<g>
</g>
<g>
</g>
<g>
</g>
<g>
</g>
<g>
</g>
<g>
</g>
<g>
</g>
<g>
</g>
<g>
</g>
<g>
</g>
<g>
</g>
<g>
</g>
</svg>
