<?xml version="1.0" encoding="iso-8859-1"?>
<!-- Generator: Adobe Illustrator 19.0.0, SVG Export Plug-In . SVG Version: 6.00 Build 0)  -->
<svg version="1.1" id="Layer_1" xmlns="http://www.w3.org/2000/svg" xmlns:xlink="http://www.w3.org/1999/xlink" x="0px" y="0px"
	 viewBox="0 0 503.467 503.467" style="enable-background:new 0 0 503.467 503.467;" xml:space="preserve" width="504" height="504">
<g transform="translate(1 1)">
	<path style="fill:#FF7474;" d="M498.2,37.4v152.747c-5.973-0.853-11.947-4.267-17.067-7.68c-10.24-7.68-17.067-20.48-17.067-34.133
		V3.267C482.84,3.267,498.2,18.627,498.2,37.4z M208.067,3.267v145.067c0,23.893-18.773,42.667-42.667,42.667
		c-23.893,0-42.667-18.773-42.667-42.667V3.267H208.067z M378.733,3.267v145.067c0,23.893-18.773,42.667-42.667,42.667
		S293.4,172.227,293.4,148.333V3.267H378.733z M37.4,3.267v145.067c0,13.653-6.827,26.453-17.067,34.133
		c-5.12,3.413-11.093,6.827-17.067,7.68V37.4C3.267,18.627,18.627,3.267,37.4,3.267z"/>
	<path style="fill:#ECF4F7;" d="M481.133,182.467V344.6h-460.8V182.467c10.24-7.68,17.067-20.48,17.067-34.133
		C37.4,172.227,56.173,191,80.067,191s42.667-18.773,42.667-42.667c0,23.893,18.773,42.667,42.667,42.667
		c23.893,0,42.667-18.773,42.667-42.667c0,23.893,18.773,42.667,42.667,42.667s42.667-18.773,42.667-42.667
		c0,23.893,18.773,42.667,42.667,42.667s42.667-18.773,42.667-42.667c0,23.893,18.773,42.667,42.667,42.667
		s42.667-18.773,42.667-42.667C464.067,161.987,470.893,174.787,481.133,182.467"/>
	<path style="fill:#50DD8E;" d="M122.733,3.267v145.067c0,23.893-18.773,42.667-42.667,42.667S37.4,172.227,37.4,148.333V3.267
		H122.733z M293.4,3.267v145.067c0,23.893-18.773,42.667-42.667,42.667s-42.667-18.773-42.667-42.667V3.267H293.4z M464.067,3.267
		v145.067c0,23.893-18.773,42.667-42.667,42.667s-42.667-18.773-42.667-42.667V3.267H464.067z"/>
	<polygon style="fill:#FFD0A1;" points="481.133,344.6 481.133,481.133 429.933,481.133 71.533,481.133 20.333,481.133 
		20.333,344.6 	"/>
	<path style="fill:#AE938D;" d="M165.4,250.733l-12.8,93.013v0.853H93.72v-0.853l-13.653-93.013c0,0,8.533-17.067,42.667-17.067
		S165.4,250.733,165.4,250.733"/>
	<path style="fill:#50DD8E;" d="M429.933,310.467c0-9.387-7.68-17.067-17.067-17.067s-17.067,7.68-17.067,17.067H429.933z
		 M361.667,310.467c0-9.387-7.68-17.067-17.067-17.067s-17.067,7.68-17.067,17.067H361.667z M293.4,310.467
		c0-9.387-7.68-17.067-17.067-17.067s-17.067,7.68-17.067,17.067H293.4z M395.8,259.267c0-9.387-7.68-17.067-17.067-17.067
		c-9.387,0-17.067,7.68-17.067,17.067H395.8z M327.533,259.267c0-9.387-7.68-17.067-17.067-17.067s-17.067,7.68-17.067,17.067
		H327.533z"/>
</g>
<path style="fill:#51565F;" d="M430.933,503.467c-2.56,0-4.267-1.707-4.267-4.267v-17.067c0-2.56,1.707-4.267,4.267-4.267h46.933
	v-128h-422.4c-2.56,0-4.267-1.707-4.267-4.267c0-2.56,1.707-4.267,4.267-4.267h426.667c2.56,0,4.267,1.707,4.267,4.267v136.533
	c0,2.56-1.707,4.267-4.267,4.267H435.2v12.8C435.2,501.76,433.493,503.467,430.933,503.467z M72.533,503.467
	c-2.56,0-4.267-1.707-4.267-4.267v-12.8H21.333c-2.56,0-4.267-1.707-4.267-4.267V221.867c0-2.56,1.707-4.267,4.267-4.267
	s4.267,1.707,4.267,4.267v256h46.933c2.56,0,4.267,1.707,4.267,4.267V499.2C76.8,501.76,75.093,503.467,72.533,503.467z
	 M396.8,486.4H106.667c-2.56,0-4.267-1.707-4.267-4.267s1.707-4.267,4.267-4.267H396.8c2.56,0,4.267,1.707,4.267,4.267
	S399.36,486.4,396.8,486.4z M157.867,315.733L157.867,315.733c-2.56,0-4.267-2.56-4.267-5.12l8.533-58.027
	c-2.56-3.413-11.947-13.653-38.4-13.653s-35.84,10.24-38.4,13.653l8.533,58.027c0,2.56-1.707,4.267-3.413,5.12
	c-2.56,0-4.267-1.707-5.12-3.413L76.8,252.587c0-0.853,0-1.707,0-2.56c0-0.853,10.24-19.627,46.08-19.627s46.08,18.773,46.08,19.627
	c0,0.853,0.853,1.707,0,2.56l-8.533,59.733C162.133,314.027,159.573,315.733,157.867,315.733z M482.133,315.733
	c-2.56,0-4.267-1.707-4.267-4.267v-89.6c0-2.56,1.707-4.267,4.267-4.267s4.267,1.707,4.267,4.267v89.6
	C486.4,314.027,484.693,315.733,482.133,315.733z M430.933,315.733c-2.56,0-4.267-1.707-4.267-4.267c0-6.827-5.973-12.8-12.8-12.8
	s-12.8,5.973-12.8,12.8c0,2.56-1.707,4.267-4.267,4.267s-4.267-1.707-4.267-4.267c0-11.947,9.387-21.333,21.333-21.333
	c11.947,0,21.333,9.387,21.333,21.333C435.2,314.027,433.493,315.733,430.933,315.733z M362.667,315.733
	c-2.56,0-4.267-1.707-4.267-4.267c0-6.827-5.973-12.8-12.8-12.8s-12.8,5.973-12.8,12.8c0,2.56-1.707,4.267-4.267,4.267
	s-4.267-1.707-4.267-4.267c0-11.947,9.387-21.333,21.333-21.333c11.947,0,21.333,9.387,21.333,21.333
	C366.933,314.027,365.227,315.733,362.667,315.733z M294.4,315.733c-2.56,0-4.267-1.707-4.267-4.267c0-6.827-5.973-12.8-12.8-12.8
	s-12.8,5.973-12.8,12.8c0,2.56-1.707,4.267-4.267,4.267S256,314.027,256,311.467c0-11.947,9.387-21.333,21.333-21.333
	s21.333,9.387,21.333,21.333C298.667,314.027,296.96,315.733,294.4,315.733z M123.733,315.733c-2.56,0-4.267-1.707-4.267-4.267
	v-34.133c0-2.56,1.707-4.267,4.267-4.267c2.56,0,4.267,1.707,4.267,4.267v34.133C128,314.027,126.293,315.733,123.733,315.733z
	 M396.8,264.533c-2.56,0-4.267-1.707-4.267-4.267c0-6.827-5.973-12.8-12.8-12.8c-6.827,0-12.8,5.973-12.8,12.8
	c0,2.56-1.707,4.267-4.267,4.267s-4.267-1.707-4.267-4.267c0-11.947,9.387-21.333,21.333-21.333
	c11.947,0,21.333,9.387,21.333,21.333C401.067,262.827,399.36,264.533,396.8,264.533z M328.533,264.533
	c-2.56,0-4.267-1.707-4.267-4.267c0-6.827-5.973-12.8-12.8-12.8s-12.8,5.973-12.8,12.8c0,2.56-1.707,4.267-4.267,4.267
	s-4.267-1.707-4.267-4.267c0-11.947,9.387-21.333,21.333-21.333c11.947,0,21.333,9.387,21.333,21.333
	C332.8,262.827,331.093,264.533,328.533,264.533z M422.4,196.267c-18.773,0-34.987-11.093-42.667-27.307
	c-7.68,16.213-23.893,27.307-42.667,27.307S302.08,185.173,294.4,168.96c-7.68,16.213-23.893,27.307-42.667,27.307
	s-34.987-11.093-42.667-27.307c-7.68,16.213-23.893,27.307-42.667,27.307c-18.773,0-34.987-11.093-42.667-27.307
	c-7.68,16.213-23.893,27.307-42.667,27.307S46.08,185.173,38.4,168.96C32.427,182.613,20.48,192,5.12,195.413
	c-0.853,0-2.56,0-3.413-0.853S0,192.853,0,191.147V38.4C0,17.067,17.067,0,38.4,0h426.667c21.333,0,38.4,17.067,38.4,38.4v152.747
	c0,0.853-0.853,2.56-1.707,3.413c-0.853,0.853-2.56,0.853-3.413,0.853c-15.36-3.413-27.307-12.8-33.28-26.453
	C457.387,185.173,441.173,196.267,422.4,196.267z M384,149.333c0,21.333,17.067,38.4,38.4,38.4s38.4-17.067,38.4-38.4V38.4
	c0-2.56,1.707-4.267,4.267-4.267s4.267,1.707,4.267,4.267v110.933c0,16.213,10.24,30.72,25.6,35.84V38.4
	c0-16.213-13.653-29.867-29.867-29.867H38.4C22.187,8.533,8.533,22.187,8.533,38.4v146.773c15.36-5.12,25.6-19.627,25.6-35.84V38.4
	c0-2.56,1.707-4.267,4.267-4.267s4.267,1.707,4.267,4.267v110.933c0,21.333,17.067,38.4,38.4,38.4s38.4-17.067,38.4-38.4V38.4
	c0-2.56,1.707-4.267,4.267-4.267c2.56,0,4.267,1.707,4.267,4.267v110.933c0,21.333,17.067,38.4,38.4,38.4s38.4-17.067,38.4-38.4
	V38.4c0-2.56,1.707-4.267,4.267-4.267s4.267,1.707,4.267,4.267v110.933c0,21.333,17.067,38.4,38.4,38.4s38.4-17.067,38.4-38.4V38.4
	c0-2.56,1.707-4.267,4.267-4.267s4.267,1.707,4.267,4.267v110.933c0,21.333,17.067,38.4,38.4,38.4s38.4-17.067,38.4-38.4V38.4
	c0-2.56,1.707-4.267,4.267-4.267c2.56,0,4.267,1.707,4.267,4.267V149.333z"/>
<g>
</g>
<g>
</g>
<g>
</g>
<g>
</g>
<g>
</g>
<g>
</g>
<g>
</g>
<g>
</g>
<g>
</g>
<g>
</g>
<g>
</g>
<g>
</g>
<g>
</g>
<g>
</g>
<g>
</g>
</svg>
