<?xml version="1.0" encoding="iso-8859-1"?>
<!-- Generator: Adobe Illustrator 19.0.0, SVG Export Plug-In . SVG Version: 6.00 Build 0)  -->
<svg version="1.1" id="Capa_1" xmlns="http://www.w3.org/2000/svg" xmlns:xlink="http://www.w3.org/1999/xlink" x="0px" y="0px"
	 viewBox="0 0 410 410" style="enable-background:new 0 0 410 410;" xml:space="preserve">
<g id="XMLID_1710_">
	<path id="XMLID_1712_" style="fill:#DEDDE0;" d="M70,250h35h35l4,20h61V120h-80H95H30v60v90h36L70,250z M140,150h50v40h-50V150z
		 M60,150h50v40H60V150z"/>
	<path id="XMLID_1716_" style="fill:#CDCDD0;" d="M205,270h61l4-20h35h35l4,20h36v-20v-30v-30h-60l-20-70h-65h-30V270z M220,150
		h57.371l11.429,40H220V150z"/>
	<polygon id="XMLID_1719_" style="fill:#FFFFFF;" points="277.371,150 220,150 220,190 288.8,190 	"/>
	<rect id="XMLID_1720_" x="380" y="190" style="fill:#565659;" width="30" height="30"/>
	<path id="XMLID_1721_" style="fill:#565659;" d="M380,270h-36l-4-20h-35v22.5c12.427,0,22.5,10.073,22.5,22.5
		s-10.073,22.5-22.5,22.5V340c23.162,0,42.228-17.501,44.717-40H350h60v-50h-30V270z"/>
	<path id="XMLID_1722_" style="fill:#565659;" d="M60,295c0-24.853,20.147-45,45-45H70l-4,20H30v30h30h0.283
		C60.102,298.357,60,296.691,60,295z"/>
	<path id="XMLID_1723_" style="fill:#565659;" d="M260,295c0-24.853,20.147-45,45-45h-35l-4,20h-61h-61l-4-20h-35v22.5
		c12.427,0,22.5,10.073,22.5,22.5s-10.073,22.5-22.5,22.5V340c23.162,0,42.229-17.501,44.717-40H150h110h0.283
		C260.102,298.357,260,296.691,260,295z"/>
	<path id="XMLID_1724_" style="fill:#616064;" d="M82.5,295c0-12.427,10.073-22.5,22.5-22.5V250c-24.853,0-45,20.147-45,45
		c0,1.691,0.102,3.357,0.283,5c2.488,22.499,21.555,40,44.717,40v-22.5C92.573,317.5,82.5,307.427,82.5,295z"/>
	<path id="XMLID_1725_" style="fill:#CDCDD0;" d="M82.5,295c0,12.427,10.073,22.5,22.5,22.5v-45C92.573,272.5,82.5,282.573,82.5,295
		z"/>
	<path id="XMLID_1726_" style="fill:#ACABB1;" d="M105,317.5c12.427,0,22.5-10.073,22.5-22.5s-10.073-22.5-22.5-22.5V317.5z"/>
	<path id="XMLID_1727_" style="fill:#616064;" d="M282.5,295c0-12.427,10.073-22.5,22.5-22.5V250c-24.853,0-45,20.147-45,45
		c0,1.691,0.102,3.357,0.283,5c2.488,22.499,21.555,40,44.717,40v-22.5C292.573,317.5,282.5,307.427,282.5,295z"/>
	<path id="XMLID_1728_" style="fill:#CDCDD0;" d="M282.5,295c0,12.427,10.073,22.5,22.5,22.5v-45
		C292.573,272.5,282.5,282.573,282.5,295z"/>
	<path id="XMLID_1729_" style="fill:#ACABB1;" d="M305,317.5c12.427,0,22.5-10.073,22.5-22.5s-10.073-22.5-22.5-22.5V317.5z"/>
	<rect id="XMLID_1730_" x="60" y="150" style="fill:#FFFFFF;" width="50" height="40"/>
	<rect id="XMLID_1731_" x="140" y="150" style="fill:#FFFFFF;" width="50" height="40"/>
	<polygon id="XMLID_1732_" style="fill:#565659;" points="125,100 205,100 205,120 235,120 235,100 290,100 290,70 40,70 40,100 
		95,100 95,120 125,120 	"/>
	<rect id="XMLID_1733_" y="180" style="fill:#565659;" width="30" height="90"/>
	<rect id="XMLID_1734_" x="380" y="220" style="fill:#FF9811;" width="30" height="30"/>
</g>
<g>
</g>
<g>
</g>
<g>
</g>
<g>
</g>
<g>
</g>
<g>
</g>
<g>
</g>
<g>
</g>
<g>
</g>
<g>
</g>
<g>
</g>
<g>
</g>
<g>
</g>
<g>
</g>
<g>
</g>
</svg>
