<?xml version="1.0" encoding="iso-8859-1"?>
<!-- Generator: Adobe Illustrator 19.0.0, SVG Export Plug-In . SVG Version: 6.00 Build 0)  -->
<svg version="1.1" id="Layer_1" xmlns="http://www.w3.org/2000/svg" xmlns:xlink="http://www.w3.org/1999/xlink" x="0px" y="0px"
	 viewBox="0 0 511.999 511.999" style="enable-background:new 0 0 511.999 511.999;" xml:space="preserve">
<rect x="9.906" y="9.264" style="fill:#FCD577;" width="493.474" height="493.474"/>
<path d="M502.736,0H354.821c-5.116,0-9.264,4.148-9.264,9.264s4.148,9.264,9.264,9.264h40.733v80.167h-179.25V18.528H323.94
	c5.116,0,9.264-4.148,9.264-9.264S329.057,0,323.941,0H9.264C4.148,0,0,4.148,0,9.264v98.695v98.694v98.694v98.695v98.694
	c0,5.116,4.148,9.264,9.264,9.264h493.471c5.116,0,9.264-4.148,9.264-9.264V9.264C512,4.148,507.852,0,502.736,0z M395.554,413.305
	v80.166h-179.25v-80.166H395.554z M314.222,394.777V314.61h179.248v80.167H314.222z M18.528,296.083v-80.166h179.248v80.166H18.528z
	 M18.528,394.777V314.61h79.39v80.167H18.528z M295.694,117.223v80.166H116.446v-80.166H295.694z M97.918,197.389h-79.39v-80.166
	h79.39V197.389z M216.304,215.917h126.163c5.116,0,9.264-4.148,9.264-9.264s-4.148-9.264-9.264-9.264h-28.245v-80.166h179.248
	v80.166H373.348c-5.116,0-9.264,4.148-9.264,9.264c0,5.116,4.148,9.264,9.264,9.264h22.206v80.166h-179.25V215.917z
	 M493.472,215.917v80.166h-79.39v-80.166H493.472z M414.082,18.528h79.39v80.167h-79.39V18.528z M197.776,98.695H18.528V18.528
	h179.248V98.695z M18.528,413.305h133.719c5.116,0,9.264-4.148,9.264-9.264c0-5.116-4.148-9.264-9.264-9.264h-35.801V314.61h179.248
	v80.167H183.127c-5.116,0-9.264,4.148-9.264,9.264c0,5.116,4.148,9.264,9.264,9.264h14.649v80.166H18.528V413.305z M414.082,493.472
	v-80.166h79.39v80.166H414.082z"/>
<g>
</g>
<g>
</g>
<g>
</g>
<g>
</g>
<g>
</g>
<g>
</g>
<g>
</g>
<g>
</g>
<g>
</g>
<g>
</g>
<g>
</g>
<g>
</g>
<g>
</g>
<g>
</g>
<g>
</g>
</svg>
