<?xml version="1.0" encoding="iso-8859-1"?>
<!-- Generator: Adobe Illustrator 19.0.0, SVG Export Plug-In . SVG Version: 6.00 Build 0)  -->
<svg version="1.1" id="Layer_1" xmlns="http://www.w3.org/2000/svg" xmlns:xlink="http://www.w3.org/1999/xlink" x="0px" y="0px"
	 viewBox="0 0 215.8 215.8" style="enable-background:new 0 0 215.8 215.8;" xml:space="preserve" width="215.8" height="215.8">
<g>
	<g>
		<circle style="fill:#FF6059;" cx="107.9" cy="107.9" r="107.9"/>
		<g>
			<path style="fill:#56943E;" d="M72.468,163.888c0,0-9.642,4.895-16.152,5.111c-6.509,0.217-5.858,1.086-5.207,3.473
				c0.65,2.385,15.62,3.133,26.688-4.293L72.468,163.888z"/>
			<path style="fill:#FBCA3D;" d="M74.506,168.999c0,0-4.087-5.643-1.266-12.367c2.82-6.727,15.404-7.596,22.564-20.18
				s15.84-37.471,6.292-61.805C92.55,50.314,88.86,46.504,96.89,40.382c8.028-6.123,24.952,9.499,32.112,29.894
				c7.16,20.396,13.969,70.509-13.887,93.081C89.946,183.753,75.829,171.581,74.506,168.999z"/>
			<path style="fill:#FBCA3D;" d="M74.506,168.999c0,0-4.087-5.643-1.266-12.367c2.82-6.727,15.404-7.596,22.564-20.18
				s15.84-37.471,6.292-61.805C92.55,50.314,88.86,46.504,96.89,40.382c8.028-6.123,24.952,9.499,32.112,29.894
				c7.16,20.396,13.969,70.509-13.887,93.081C89.946,183.753,75.829,171.581,74.506,168.999z"/>
			<path style="fill:#F2C030;" d="M129.002,70.276c-6.391-18.204-20.555-32.591-29.234-31.122
				c9.335,5.614,18.611,14.62,22.225,24.913c7.16,20.396,1.498,70.771-26.357,93.343c-8.404,6.811-15.569,9.979-21.444,11.096
				C74.38,168.82,74.507,169,74.507,169c1.323,2.582,15.44,14.754,40.609-5.643C142.971,140.784,136.162,90.671,129.002,70.276z"/>
			<path style="fill:#F3E27C;" d="M106.187,101.626c3.025-0.096,14.675,5.37,15.806,7.054c3.699-3.768,4.866-5.34,11.09-7.114
				c0.635-0.181,1.27-0.363,1.902-0.547c-0.896-12.308-3.416-23.435-5.982-30.744c-7.16-20.396-24.084-36.018-32.112-29.894
				c-8.029,6.123-4.34,9.932,5.207,34.266C105.684,83.79,106.698,93.01,106.187,101.626z"/>
			<path style="fill:#F4A500;" d="M121.992,108.68c0,0-1.887-18.878-25.754-16.49c-23.866,2.387-35.237,26.496-28.076,44.942
				c3.879,9.99,16.143,1.924,15.275-7.838C82.765,121.716,97.625,95.228,121.992,108.68z"/>
			<path style="fill:#F4A500;" d="M121.992,108.68c0,0,3.32-14.32,19.16-12.368c15.839,1.953,26.688,26.905,24.951,41.444
				c-1.735,14.535-5.642,16.488-11.499,14.969c-5.858-1.518-5.642-12.15-6.51-19.744C147.227,125.388,139.283,96.095,121.992,108.68
				z"/>
		</g>
	</g>
</g>
<g>
</g>
<g>
</g>
<g>
</g>
<g>
</g>
<g>
</g>
<g>
</g>
<g>
</g>
<g>
</g>
<g>
</g>
<g>
</g>
<g>
</g>
<g>
</g>
<g>
</g>
<g>
</g>
<g>
</g>
</svg>
